<svg width="50" height="50" viewBox="0 0 50 50" fill="none" xmlns="http://www.w3.org/2000/svg">
<path d="M44.4818 8.98683L30.8455 1.48863C29.0804 0.514657 27.0591 0 24.9989 0C22.9386 0 20.9173 0.514657 19.1523 1.48863L5.51591 8.98683C3.83734 9.91645 2.44816 11.2264 1.4821 12.7906C0.516038 14.3548 0.00562674 16.1206 0 17.918V32.0813C0.00562674 33.8787 0.516038 35.6445 1.4821 37.2087C2.44816 38.7729 3.83734 40.0829 5.51591 41.0125L19.1523 48.5107C20.9171 49.4851 22.9385 50 24.9989 50C27.0592 50 29.0806 49.4851 30.8455 48.5107L44.4818 41.0125C46.1608 40.0831 47.5504 38.7733 48.5169 37.209C49.4834 35.6448 49.9941 33.8789 50 32.0813V17.918C49.9941 16.1204 49.4834 14.3545 48.5169 12.7903C47.5504 11.226 46.1608 9.91619 44.4818 8.98683ZM21.4932 5.06278C22.5517 4.47809 23.7641 4.16911 25 4.16911C26.2359 4.16911 27.4483 4.47809 28.5068 5.06278L42.1432 12.561C42.5157 12.7664 42.8659 13.0042 43.1886 13.2712L25.0068 23.2688L6.825 13.2712C7.14735 13.0038 7.49751 12.7659 7.87045 12.561L21.4932 5.06278ZM7.85682 37.4404C6.84909 36.883 6.01504 36.0971 5.43505 35.1584C4.85505 34.2198 4.54868 33.16 4.54545 32.0813V17.918C4.54513 17.5866 4.57478 17.2556 4.63409 16.9287L22.7273 26.8742V45.4697C22.2975 45.3293 21.8841 45.15 21.4932 44.9344L7.85682 37.4404ZM45.4545 32.0813C45.4509 33.1599 45.1443 34.2195 44.5644 35.1581C43.9844 36.0967 43.1506 36.8827 42.1432 37.4404L28.5068 44.9386C28.1159 45.1542 27.7025 45.3335 27.2727 45.4739V26.8742L45.3659 16.9266C45.4253 17.2543 45.455 17.5859 45.4545 17.918V32.0813Z" fill="#EFEFEF"/>
</svg>
