<svg width="50" height="50" viewBox="0 0 50 50" fill="none" xmlns="http://www.w3.org/2000/svg">
<g clip-path="url(#clip0_32_2311)">
<path d="M46.8438 22.8646L25 35.9729L3.15625 22.8646C2.68246 22.5803 2.11513 22.4959 1.57909 22.6299C1.04305 22.7639 0.5822 23.1054 0.297921 23.5792C0.0136419 24.053 -0.0707781 24.6203 0.0632322 25.1563C0.197243 25.6924 0.538706 26.1532 1.0125 26.4375L23.9292 40.1875C24.2532 40.3822 24.6241 40.485 25.0021 40.485C25.3801 40.485 25.751 40.3822 26.075 40.1875L48.9917 26.4375C49.4655 26.1532 49.8069 25.6924 49.9409 25.1563C50.075 24.6203 49.9905 24.053 49.7063 23.5792C49.422 23.1054 48.9611 22.7639 48.4251 22.6299C47.889 22.4959 47.3217 22.5803 46.8479 22.8646H46.8438Z" fill="#EFEFEF"/>
<path d="M46.8438 32.3812L25 45.4875L3.15625 32.3812C2.92165 32.2405 2.66162 32.1473 2.39101 32.107C2.1204 32.0668 1.84451 32.0802 1.57909 32.1466C1.31367 32.2129 1.06391 32.3309 0.844089 32.4938C0.624266 32.6567 0.438675 32.8612 0.297915 33.0958C0.157154 33.3304 0.0639798 33.5905 0.0237118 33.8611C-0.0165561 34.1317 -0.00312917 34.4076 0.063226 34.673C0.197236 35.209 0.5387 35.6699 1.0125 35.9542L23.9292 49.7042C24.2532 49.8988 24.6241 50.0017 25.0021 50.0017C25.3801 50.0017 25.751 49.8988 26.075 49.7042L48.9917 35.9542C49.4655 35.6699 49.8069 35.209 49.9409 34.673C50.075 34.137 49.9905 33.5696 49.7062 33.0958C49.422 32.622 48.9611 32.2806 48.4251 32.1466C47.889 32.0125 47.3217 32.097 46.8479 32.3812H46.8438Z" fill="#EFEFEF"/>
<path d="M25 30.7771C23.8762 30.7765 22.7737 30.4704 21.8104 29.8917L1.01041 17.4104C0.702388 17.2252 0.44752 16.9635 0.270582 16.6506C0.0936442 16.3377 0.000656128 15.9844 0.000656128 15.625C0.000656128 15.2656 0.0936442 14.9123 0.270582 14.5994C0.44752 14.2866 0.702388 14.0248 1.01041 13.8396L21.8104 1.35835C22.7737 0.779658 23.8763 0.473938 25 0.473938C26.1237 0.473938 27.2263 0.779658 28.1896 1.35835L48.9896 13.8396C49.2976 14.0248 49.5525 14.2866 49.7294 14.5994C49.9064 14.9123 49.9993 15.2656 49.9993 15.625C49.9993 15.9844 49.9064 16.3377 49.7294 16.6506C49.5525 16.9635 49.2976 17.2252 48.9896 17.4104L28.1896 29.8917C27.2263 30.4704 26.1238 30.7765 25 30.7771ZM6.13333 15.625L23.9583 26.3188C24.2732 26.5071 24.6331 26.6065 25 26.6065C25.3669 26.6065 25.7268 26.5071 26.0417 26.3188L43.8667 15.625L26.0417 4.93126C25.7268 4.74294 25.3669 4.64349 25 4.64349C24.6331 4.64349 24.2732 4.74294 23.9583 4.93126L6.13333 15.625Z" fill="#EFEFEF"/>
</g>
<defs>
<clipPath id="clip0_32_2311">
<rect width="50" height="50" fill="white"/>
</clipPath>
</defs>
</svg>
